<?xml version="1.0" encoding="UTF-8"?>
<svg width="14px" height="14px" viewBox="0 0 14 14" version="1.1" xmlns="http://www.w3.org/2000/svg" xmlns:xlink="http://www.w3.org/1999/xlink">
    <!-- Generator: Sketch 49.2 (51160) - http://www.bohemiancoding.com/sketch -->
    <title>Instagram</title>
    <desc>Created with Sketch.</desc>
    <defs></defs>
    <g id="Page-1" stroke="none" stroke-width="1" fill="none" fill-rule="evenodd">
        <g id="Final-design" transform="translate(-1191.000000, -35.000000)" fill="#909090" fill-rule="nonzero">
            <g id="1">
                <g id="head" transform="translate(128.000000, 35.000000)">
                    <g id="Instagram" transform="translate(1063.364085, 0.938537)">
                        <g id="Instagram-black">
                            <g id="Icons">
                                <g id="Black">
                                    <path d="M6.44571731,0 C4.69516791,0 4.47574495,0.00752000352 3.78820177,0.0386743038 C3.10200145,0.0700971757 2.63334409,0.179137227 2.2235039,0.338400159 C1.79969799,0.503034521 1.44008067,0.723531768 1.08207479,1.08180622 C0.723531768,1.44008067 0.503034521,1.79969799 0.338400159,2.2235039 C0.179137227,2.63361266 0.0698286041,3.10200145 0.0386743038,3.78820177 C0.00752000352,4.47574495 0,4.69516791 0,6.44571731 C0,8.1962667 0.00752000352,8.41568966 0.0386743038,9.10323284 C0.0700971757,9.78943316 0.179137227,10.2580905 0.338400159,10.6679307 C0.503034521,11.0917366 0.723531768,11.4513539 1.08180622,11.8093598 C1.44008067,12.1679028 1.79969799,12.3884001 2.2235039,12.553303 C2.63361266,12.7122974 3.10200145,12.8213374 3.78820177,12.8527603 C4.47574495,12.8839146 4.69516791,12.8914346 6.44571731,12.8914346 C8.1962667,12.8914346 8.41568966,12.8839146 9.10323284,12.8527603 C9.78943316,12.8213374 10.2580905,12.7122974 10.6679307,12.5530345 C11.0917366,12.3884001 11.4513539,12.1679028 11.8093598,11.8096284 C12.1679028,11.4513539 12.3884001,11.0917366 12.553303,10.6679307 C12.7122974,10.2578219 12.8213374,9.78943316 12.8527603,9.10323284 C12.8839146,8.41568966 12.8914346,8.1962667 12.8914346,6.44571731 C12.8914346,4.69516791 12.8839146,4.47574495 12.8527603,3.78820177 C12.8213374,3.10200145 12.7122974,2.63334409 12.5530345,2.2235039 C12.3884001,1.79969799 12.1679028,1.44008067 11.8096284,1.08207479 C11.4513539,0.723531768 11.0917366,0.503034521 10.6679307,0.338400159 C10.2578219,0.179137227 9.78943316,0.0698286041 9.10323284,0.0386743038 C8.41568966,0.00752000352 8.1962667,0 6.44571731,0 Z M6.44571731,1.1613034 C8.16672383,1.1613034 8.37056964,1.16801769 9.05032424,1.19890342 C9.67878168,1.22764058 10.0198676,1.33265205 10.2473477,1.42101209 C10.5481478,1.53784072 10.763005,1.67749793 10.9886051,1.90309803 C11.2139367,2.12869814 11.3535939,2.34355538 11.4704225,2.64435552 C11.5590511,2.87129849 11.663794,3.21265293 11.6925312,3.84111037 C11.7234169,4.5205964 11.7301312,4.72471078 11.7301312,6.44571731 C11.7301312,8.16672383 11.7234169,8.37056964 11.6925312,9.05032424 C11.663794,9.67878168 11.5587826,10.0198676 11.4704225,10.2473477 C11.3535939,10.5481478 11.2139367,10.763005 10.9883366,10.9886051 C10.7627365,11.2139367 10.5478792,11.3535939 10.2470791,11.4704225 C10.0201361,11.5590511 9.67878168,11.663794 9.05032424,11.6925312 C8.37083821,11.7234169 8.16672383,11.7301312 6.44571731,11.7301312 C4.72444221,11.7301312 4.5205964,11.7234169 3.84111037,11.6925312 C3.21265293,11.663794 2.87156706,11.5587826 2.64408695,11.4704225 C2.34328681,11.3535939 2.12842957,11.2139367 1.90282946,10.9883366 C1.67749793,10.7627365 1.53784072,10.5478792 1.42101209,10.2470791 C1.33238348,10.0201361 1.22764058,9.67878168 1.19890342,9.05032424 C1.16801769,8.37083821 1.1613034,8.16672383 1.1613034,6.44571731 C1.1613034,4.72471078 1.16801769,4.52086498 1.19890342,3.84111037 C1.22764058,3.21265293 1.33265205,2.87156706 1.42101209,2.64408695 C1.53784072,2.34328681 1.67749793,2.12842957 1.90309803,1.90282946 C2.12869814,1.67749793 2.34355538,1.53784072 2.64435552,1.42101209 C2.87129849,1.33238348 3.21265293,1.22764058 3.84111037,1.19890342 C4.5205964,1.16801769 4.72471078,1.1613034 6.44571731,1.1613034 Z M6.44571731,3.13584147 C4.61755073,3.13584147 3.13584147,4.61755073 3.13584147,6.44571731 C3.13584147,8.27388388 4.61755073,9.75559314 6.44571731,9.75559314 C8.27388388,9.75559314 9.75559314,8.27388388 9.75559314,6.44571731 C9.75559314,4.61755073 8.27388388,3.13584147 6.44571731,3.13584147 Z M6.44571731,8.59428974 C5.25909352,8.59428974 4.29714487,7.6323411 4.29714487,6.44571731 C4.29714487,5.25909352 5.25909352,4.29714487 6.44571731,4.29714487 C7.6323411,4.29714487 8.59428974,5.25909352 8.59428974,6.44571731 C8.59428974,7.6323411 7.6323411,8.59428974 6.44571731,8.59428974 Z M10.6598736,3.00504712 C10.6598736,3.43223169 10.3135721,3.7785332 9.88638749,3.7785332 C9.45920292,3.7785332 9.11290141,3.43223169 9.11290141,3.00504712 C9.11290141,2.57786256 9.45920292,2.23156105 9.88638749,2.23156105 C10.3135721,2.23156105 10.6598736,2.57786256 10.6598736,3.00504712 Z" id="Instagram"></path>
                                </g>
                            </g>
                        </g>
                    </g>
                </g>
            </g>
        </g>
    </g>
</svg>