<?xml version="1.0" encoding="UTF-8"?>
<svg width="11px" height="13px" viewBox="0 0 11 13" version="1.1" xmlns="http://www.w3.org/2000/svg" xmlns:xlink="http://www.w3.org/1999/xlink">
    <!-- Generator: Sketch 49.2 (51160) - http://www.bohemiancoding.com/sketch -->
    <title>Shape</title>
    <desc>Created with Sketch.</desc>
    <defs></defs>
    <g id="Page-1" stroke="none" stroke-width="1" fill="none" fill-rule="evenodd">
        <g id="Final-design" transform="translate(-1227.000000, -36.000000)" fill="#909090" fill-rule="nonzero">
            <g id="1">
                <g id="head" transform="translate(128.000000, 35.000000)">
                    <g id="Twitter" transform="translate(1099.689454, 1.049238)">
                        <g id="Layer_1">
                            <path d="M8.06910789,9.68029053 L4.88403185,9.68029053 C4.44129366,9.68029053 4.06481561,9.52539671 3.75545821,9.21417485 C3.44466662,8.90266615 3.29106357,8.5261881 3.29106357,8.08144203 L3.29106357,6.94784868 L7.82945272,6.94784868 C8.238774,6.94784868 8.59130087,6.80084297 8.88416494,6.508696 C9.17688559,6.21411088 9.32389131,5.86201427 9.32389131,5.45226273 C9.32389131,5.04107698 9.17688559,4.68941063 8.88330442,4.39582945 C8.58943641,4.10296538 8.23576217,3.95610309 7.82471985,3.95610309 L3.29106357,3.95610309 L3.29106357,1.61405105 C3.29106357,1.1708826 3.1330145,0.791536142 2.8193545,0.475437998 C2.50669844,0.158766173 2.12878619,0 1.68992034,0 C1.23857694,0 0.854354194,0.15647145 0.541841556,0.466115684 C0.228324975,0.77676386 0.0717101053,1.15940898 0.0717101053,1.61548525 L0.0717101053,8.08215913 C0.0717101053,9.41223816 0.541841556,10.5485565 1.48253472,11.4916878 C2.4240884,12.4366836 3.55897253,12.907819 4.88575289,12.907819 L8.07025525,12.907819 C8.51227634,12.907819 8.89190964,12.7490528 9.20757752,12.4325244 C9.52353224,12.1174302 9.68115105,11.7370798 9.68115105,11.2943416 C9.68115105,10.85146 9.52353224,10.4719701 9.20757752,10.1555851 C8.8916228,9.83963039 8.51170266,9.68029053 8.06910789,9.68029053" id="Shape"></path>
                        </g>
                    </g>
                </g>
            </g>
        </g>
    </g>
</svg>