<?xml version="1.0" encoding="UTF-8"?>
<svg width="20px" height="13px" viewBox="0 0 20 13" version="1.1" xmlns="http://www.w3.org/2000/svg" xmlns:xlink="http://www.w3.org/1999/xlink">
    <!-- Generator: Sketch 49.2 (51160) - http://www.bohemiancoding.com/sketch -->
    <title>Youtube</title>
    <desc>Created with Sketch.</desc>
    <defs></defs>
    <g id="Page-1" stroke="none" stroke-width="1" fill="none" fill-rule="evenodd">
        <g id="Final-design" transform="translate(-1117.000000, -36.000000)" fill="#909090" fill-rule="nonzero">
            <g id="1">
                <g id="head" transform="translate(128.000000, 35.000000)">
                    <g id="Youtube" transform="translate(989.980247, 1.000000)">
                        <g id="Youtube-black">
                            <g id="Icons">
                                <g id="Black">
                                    <path d="M7.22376215,8.82676671 L7.22300351,3.67484812 L12.1427785,6.25953177 L7.22376215,8.82676671 Z M18.0252666,2.78192982 C18.0252666,2.78192982 17.8469864,1.51879561 17.3015248,0.961954464 C16.6088873,0.231384946 15.8331787,0.22797107 15.477377,0.185487276 C12.9294873,0 9.10784252,0 9.10784252,0 L9.09949749,0 C9.09949749,0 5.27785268,0 2.72996304,0.185866596 C2.37378195,0.22797107 1.59845272,0.231384946 0.905435846,0.961954464 C0.359594965,1.51841629 0.1820734,2.78192982 0.1820734,2.78192982 C0.1820734,2.78192982 2.84217094e-14,4.26620735 2.84217094e-14,5.74972625 L2.84217094e-14,7.14107048 C2.84217094e-14,8.62496869 0.1820734,10.1084876 0.1820734,10.1084876 C0.1820734,10.1084876 0.359594965,11.3720011 0.905435846,11.9284629 C1.59845272,12.6590325 2.50806109,12.6362733 2.9131744,12.7125165 C4.3697616,12.8532441 9.10367,12.8968658 9.10367,12.8968658 C9.10367,12.8968658 12.9294873,12.891176 15.477377,12.7053094 C15.8331787,12.6624463 16.6088873,12.6590325 17.3015248,11.9284629 C17.8473657,11.3720011 18.0252666,10.1084876 18.0252666,10.1084876 C18.0252666,10.1084876 18.20734,8.62534801 18.20734,7.14107048 L18.20734,5.74972625 C18.20734,4.26620735 18.0252666,2.78192982 18.0252666,2.78192982 Z" id="Youtube"></path>
                                </g>
                            </g>
                        </g>
                    </g>
                </g>
            </g>
        </g>
    </g>
</svg>